<svg width="14" height="14" viewBox="0 0 14 14" fill="none" xmlns="http://www.w3.org/2000/svg">
<path fill-rule="evenodd" clip-rule="evenodd" d="M0.333313 7.00016C0.333313 3.32016 3.31998 0.333496 6.99998 0.333496C10.68 0.333496 13.6666 3.32016 13.6666 7.00016C13.6666 10.6802 10.68 13.6668 6.99998 13.6668C3.31998 13.6668 0.333313 10.6802 0.333313 7.00016ZM6.33329 4.33366C6.33329 3.96699 6.63329 3.66699 6.99996 3.66699C7.36663 3.66699 7.66663 3.96699 7.66663 4.33366V6.33366H9.66663C10.0333 6.33366 10.3333 6.63366 10.3333 7.00033C10.3333 7.36699 10.0333 7.66699 9.66663 7.66699H7.66663V9.66699C7.66663 10.0337 7.36663 10.3337 6.99996 10.3337C6.63329 10.3337 6.33329 10.0337 6.33329 9.66699V7.66699H4.33329C3.96663 7.66699 3.66663 7.36699 3.66663 7.00033C3.66663 6.63366 3.96663 6.33366 4.33329 6.33366H6.33329V4.33366Z" fill="#9873FF"/>
</svg>
