<svg width="14" height="14" viewBox="0 0 14 14" fill="none" xmlns="http://www.w3.org/2000/svg">
<path d="M7.00001 3.66659C6.63334 3.66659 6.33334 3.96659 6.33334 4.33325V6.33325H4.33334C3.96668 6.33325 3.66668 6.63325 3.66668 6.99992C3.66668 7.36659 3.96668 7.66659 4.33334 7.66659H6.33334V9.66659C6.33334 10.0333 6.63334 10.3333 7.00001 10.3333C7.36668 10.3333 7.66668 10.0333 7.66668 9.66659V7.66659H9.66668C10.0333 7.66659 10.3333 7.36659 10.3333 6.99992C10.3333 6.63325 10.0333 6.33325 9.66668 6.33325H7.66668V4.33325C7.66668 3.96659 7.36668 3.66659 7.00001 3.66659ZM7.00001 0.333252C3.32001 0.333252 0.333344 3.31992 0.333344 6.99992C0.333344 10.6799 3.32001 13.6666 7.00001 13.6666C10.68 13.6666 13.6667 10.6799 13.6667 6.99992C13.6667 3.31992 10.68 0.333252 7.00001 0.333252ZM7.00001 12.3333C4.06001 12.3333 1.66668 9.93992 1.66668 6.99992C1.66668 4.05992 4.06001 1.66659 7.00001 1.66659C9.94001 1.66659 12.3333 4.05992 12.3333 6.99992C12.3333 9.93992 9.94001 12.3333 7.00001 12.3333Z" fill="#9873FF"/>
</svg>
